# xmcd
#
# Track frame offsets:
#	150
#	20250
#	37462
#	54000
#	69900
#	89363
#	107288
#	123938
#	145658
#	162424
#	175699
#	195477
#	211415
#	228102
#	240290
#
# Disc length: 3422 seconds
#
# Revision: 1
# Processed by: cddbd v1.5.1PL2 Copyright (c) Steve Scherf et al.
# Submitted via: audiograbber 1.83.01
#
DISCID=b40d5c0f
DTITLE=Music Maestro - MM6422
DYEAR=1900
DGENRE=Karaoke
TTITLE0=Chesney, Kenny - Woman With You, The
TTITLE1=Carolina Rain - I Ain't Scared
TTITLE2=Keith, Toby - Stays In Mexico
TTITLE3=Shelton, Blake - Some Beach
TTITLE4=Sugarland - Baby Girl
TTITLE5=Wilmon, Trent - Dixie Rose's Deluxe
TTITLE6=Gentry, Montgomery - You Do Your Thing
TTITLE7=Green, Pat - Don't Break My Heart Again
TTITLE8=Buffett, Jimmy and Martina McBride - Trip Around The Sun
TTITLE9=Rimes, LeAnn - Nothin' 'bout Love Makes Sense
TTITLE10=Emerson Drive - November
TTITLE11=Tritt, Travis and John Mellencamp - What Say You
TTITLE12=Dean, Billy - Let Them Be Little
TTITLE13=Gracin, Josh - Nothing To Lose
TTITLE14=Twain, Shania and Billy Currington - Party For Two
EXTD=
EXTT0=
EXTT1=
EXTT2=
EXTT3=
EXTT4=
EXTT5=
EXTT6=
EXTT7=
EXTT8=
EXTT9=
EXTT10=
EXTT11=
EXTT12=
EXTT13=
EXTT14=
PLAYORDER=
